<!DOCTYPE svg PUBLIC "-//W3C//DTD SVG 1.1//EN" "http://www.w3.org/Graphics/SVG/1.1/DTD/svg11.dtd">
<!-- Uploaded to: SVG Find, www.svgrepo.com, Transformed by: SVG Find Mixer Tools -->
<svg fill="#ffffff" width="800px" height="800px" version="1.1" viewBox="144 144 512 512" xmlns="http://www.w3.org/2000/svg" stroke="#ffffff" stroke-width="20.991999999999997">
<g id="SVGRepo_bgCarrier" stroke-width="0"/>
<g id="SVGRepo_tracerCarrier" stroke-linecap="round" stroke-linejoin="round"/>
<g id="SVGRepo_iconCarrier"> <path d="m400.01 170.88c-126.34 0-229.13 102.79-229.13 229.13 0 126.34 102.79 229.11 229.13 229.11 126.34 0 229.11-102.77 229.11-229.11 0-126.34-102.77-229.13-229.11-229.13zm0 5.25c123.45 0 223.88 100.44 223.88 223.88 0 123.45-100.44 223.86-223.88 223.86-123.45 0-223.88-100.42-223.88-223.86 0-123.45 100.44-223.88 223.88-223.88zm-14.945 6.6211c-0.93359 0-1.8125 0.50391-2.2773 1.3125l-14.945 25.871c-0.47266 0.80859-0.47266 1.8164 0 2.6211l14.945 25.891c0.46094 0.80859 1.3398 1.3125 2.2773 1.3125h29.891c0.93359 0 1.8125-0.50391 2.2773-1.3125l14.945-25.891c0.47266-0.80859 0.47266-1.8164 0-2.6211l-14.945-25.875c-0.46094-0.80859-1.3398-1.3125-2.2773-1.3125zm14.945 5.2461c12.824 0 23.246 10.422 23.246 23.246 0 12.824-10.422 23.266-23.246 23.266-12.824 0-23.27-10.441-23.27-23.266 0-12.824 10.441-23.246 23.27-23.246zm-141.88 47.109c-0.4375 0.11719-0.83594 0.35547-1.168 0.67188l-21.137 21.133c-0.68359 0.66406-0.91797 1.6367-0.67578 2.543l7.7305 28.887c0.25 0.90234 0.96094 1.6016 1.8672 1.8438l28.863 7.7461c0.23047 0.11719 0.45312 0.11719 0.67578 0.11719 0.68359 0 1.3633-0.27734 1.8672-0.77734l21.137-21.133c0.68359-0.66406 0.91797-1.6367 0.67578-2.543l-7.7266-28.863c-0.25-0.90625-0.96094-1.6211-1.8672-1.8633l-28.867-7.7305c-0.46094-0.11719-0.9375-0.11719-1.375 0zm282.41 0-28.883 7.7266c-0.90234 0.23828-1.6016 0.96484-1.8438 1.8633l-7.75 28.863c-0.24219 0.91406 0.03125 1.8789 0.69531 2.543l21.137 21.137c0.50391 0.49219 1.1641 0.77734 1.8438 0.77734 0.21875 0 0.44531 0 0.67578-0.11719l28.883-7.7266c0.90234-0.23828 1.6016-0.94531 1.8438-1.8438l7.75-28.883c0.24219-0.91406-0.011719-1.8789-0.67578-2.543l-21.156-21.137c-0.66016-0.68359-1.6094-0.90625-2.5234-0.67188zm-274 8.1602c12.836 0 23.27 10.422 23.27 23.246s-10.441 23.266-23.27 23.266c-12.824 0-23.266-10.441-23.266-23.266s10.441-23.246 23.266-23.246zm266.95 0c12.824 0 23.246 10.422 23.246 23.246s-10.422 23.266-23.246 23.266-23.27-10.441-23.27-23.266 10.441-23.246 23.27-23.246zm-133.48 30.812c-69.426 0-125.89 56.484-125.89 125.91s56.465 125.89 125.89 125.89c69.426 0 125.89-56.465 125.89-125.89s-56.465-125.91-125.89-125.91zm0 5.2461c66.527 0 120.64 54.133 120.64 120.66 0 66.527-54.113 120.64-120.64 120.64-66.527 0-120.66-54.113-120.66-120.64 0-66.527 54.133-120.66 120.66-120.66zm-188.74 88.148c-0.45312 0-0.90625 0.11719-1.3125 0.35547l-25.891 14.945c-0.80859 0.46094-1.3125 1.3398-1.3125 2.2773v29.891c0 0.9375 0.50391 1.793 1.3125 2.2539l25.891 14.945c0.41016 0.23828 0.85938 0.35547 1.3125 0.35547s0.90234-0.11719 1.3125-0.35547l25.891-14.945c0.80859-0.46094 1.3125-1.3203 1.3125-2.2539v-29.891c0-0.9375-0.50391-1.8125-1.3125-2.2773l-25.891-14.945c-0.40234-0.23828-0.85938-0.35547-1.3125-0.35547zm377.51 0c-0.45313 0-0.90625 0.11719-1.3125 0.35547l-25.891 14.945c-0.80859 0.46094-1.3125 1.3398-1.3125 2.2773v29.891c0 0.9375 0.50391 1.793 1.3125 2.2539l25.891 14.945c0.40234 0.23828 0.86719 0.35547 1.3125 0.35547 0.44531-0.003906 0.88672-0.11719 1.293-0.35547l25.891-14.945c0.80859-0.46094 1.3125-1.3203 1.3125-2.2539v-29.891c0-0.9375-0.50391-1.8125-1.3125-2.2773l-25.891-14.945c-0.40234-0.23828-0.83594-0.35547-1.293-0.35547zm-377.51 9.2461c12.754 0 23.133 10.312 23.246 23.043v0.41016c-0.11328 12.73-10.492 23.062-23.246 23.062-12.824 0-23.27-10.441-23.27-23.27 0-12.824 10.441-23.246 23.27-23.246zm377.51 0c12.824 0 23.246 10.422 23.246 23.246 0 12.824-10.422 23.27-23.246 23.27-12.824 0-23.289-10.441-23.289-23.27 0-12.824 10.465-23.246 23.289-23.246zm-63.715 125.3c-0.4375 0.11719-0.83594 0.35547-1.168 0.67188l-21.137 21.137c-0.68359 0.66406-0.9375 1.6367-0.69531 2.543l7.75 28.883c0.25 0.90625 0.94141 1.6016 1.8438 1.8438l28.883 7.75c0.23047 0.11719 0.45312 0.11719 0.67578 0.11719 0.69141 0 1.3516-0.27734 1.8438-0.77734l21.156-21.137c0.68359-0.66406 0.91797-1.6367 0.67578-2.543l-7.7266-28.863c-0.25-0.90625-0.96094-1.6211-1.8672-1.8633l-28.883-7.7422c-0.46094-0.11719-0.91797-0.11719-1.3516 0zm-251.47 0-28.863 7.7266c-0.90234 0.23828-1.625 0.96484-1.8672 1.8633l-7.7266 28.863c-0.24219 0.91406 0.011719 1.8789 0.67578 2.543l21.137 21.133c0.50391 0.49219 1.1836 0.77734 1.8672 0.77734 0.23047 0 0.45312-0.11719 0.67578-0.11719l28.883-7.75c0.90234-0.23828 1.6016-0.94531 1.8438-1.8438l7.75-28.887c0.24219-0.91406-0.03125-1.8789-0.69531-2.543l-21.137-21.121c-0.66016-0.68359-1.6406-0.90625-2.543-0.68359zm-7.0508 8.1367c12.836 0 23.27 10.441 23.27 23.27 0 12.824-10.441 23.27-23.27 23.27-12.824 0-23.266-10.441-23.266-23.27 0-12.824 10.441-23.27 23.266-23.27zm266.95 0c12.824 0 23.246 10.441 23.246 23.27 0 12.824-10.422 23.27-23.246 23.27s-23.27-10.441-23.27-23.27c0-12.824 10.441-23.27 23.27-23.27zm-148.42 50.039c-0.93359 0-1.8125 0.50391-2.2773 1.3125l-14.945 25.891c-0.47266 0.80859-0.47266 1.8164 0 2.6211l14.945 25.871c0.46094 0.80859 1.3398 1.3125 2.2773 1.3125h29.891c0.93359 0 1.8125-0.49219 2.2773-1.3125l14.945-25.871c0.47266-0.80859 0.47266-1.8164 0-2.6211l-14.945-25.895c-0.46094-0.80859-1.3398-1.3125-2.2773-1.3125zm14.945 5.2461c12.824 0 23.246 10.441 23.246 23.27 0 12.824-10.422 23.246-23.246 23.246s-23.27-10.422-23.27-23.246 10.441-23.27 23.27-23.27z"/> </g>
</svg>