<!DOCTYPE svg PUBLIC "-//W3C//DTD SVG 1.1//EN" "http://www.w3.org/Graphics/SVG/1.1/DTD/svg11.dtd">
<!-- Uploaded to: SVG Find, www.svgrepo.com, Transformed by: SVG Find Mixer Tools -->
<svg fill="#ffffff" width="800px" height="800px" version="1.1" viewBox="144 144 512 512" xmlns="http://www.w3.org/2000/svg">
<g id="SVGRepo_bgCarrier" stroke-width="0"/>
<g id="SVGRepo_tracerCarrier" stroke-linecap="round" stroke-linejoin="round"/>
<g id="SVGRepo_iconCarrier"> <g> <path d="m331.75 286.96-67.07 31.566v39.438l86.277-40.539v-30.465zm-43.77 309.61c6.6914 4.6445 13.539 8.4219 18.184 10.707 13.617-6.0625 43.453-22.906 44.715-40.227zm-23.301-37.312v6.6914c0 8.9727 7.3203 17.789 16.215 25.191l70.062-32.828v-39.516zm0-192.55v39.438l86.277-40.461v-39.598zm0 144.45v39.438l86.277-40.461v-39.438zm0-96.355v39.516l86.277-40.461v-39.516zm0 48.18v39.438l86.277-40.461v-39.438zm0-176.02v22.828l48.57-22.828zm129.96-94.543h-173.58c-22.906 0-41.484 18.656-41.484 41.641v3.3867c0 22.984 18.578 41.645 41.484 41.645h173.58c22.828 0 41.406-18.656 41.406-41.645v-3.3867c0-22.984-18.578-41.641-41.406-41.641z"/> <path d="m516.35 280.27-104.07 59.906v119.66l104.07 59.906 104.07-59.91v-119.65zm0 172.4c-29.125 0-52.82-23.617-52.82-52.664s23.695-52.664 52.82-52.664 52.82 23.617 52.82 52.664-23.695 52.664-52.82 52.664zm0-97.457c-24.797 0-44.949 20.074-44.949 44.793s20.152 44.793 44.949 44.793 44.949-20.074 44.949-44.793-20.152-44.793-44.949-44.793z"/> </g> </g>
</svg>