<?xml version="1.0" standalone="no"?>
<!DOCTYPE svg PUBLIC "-//W3C//DTD SVG 20010904//EN"
 "http://www.w3.org/TR/2001/REC-SVG-20010904/DTD/svg10.dtd">
<svg version="1.0" xmlns="http://www.w3.org/2000/svg"
 width="716.000000pt" height="716.000000pt" viewBox="0 0 716.000000 716.000000"
 preserveAspectRatio="xMidYMid meet">

<g transform="translate(0.000000,716.000000) scale(0.100000,-0.100000)"
fill="#000000" stroke="none">
<path d="M3330 6384 c-409 -46 -675 -119 -1001 -277 -742 -360 -1279 -1031
-1479 -1849 -55 -224 -72 -376 -73 -638 -1 -300 23 -492 97 -761 276 -1005
1056 -1751 2077 -1988 278 -65 666 -88 939 -56 366 42 674 136 1008 307 513
263 931 688 1197 1217 139 277 223 560 277 926 17 120 17 569 0 690 -79 543
-266 983 -601 1410 -94 120 -347 364 -481 464 -316 236 -671 402 -1051 491
-203 48 -333 61 -609 65 -146 2 -281 1 -300 -1z m580 -133 c400 -53 704 -155
1050 -354 124 -71 164 -98 290 -196 111 -86 326 -300 423 -421 318 -397 511
-856 572 -1360 23 -190 28 -327 16 -470 -36 -438 -121 -748 -299 -1090 -151
-290 -281 -460 -549 -721 -116 -114 -168 -155 -314 -252 -431 -286 -835 -420
-1380 -458 -251 -18 -480 3 -749 67 -668 161 -1211 527 -1588 1072 -75 108
-198 327 -253 452 -69 155 -161 458 -190 626 -57 335 -51 675 16 1009 77 384
288 828 548 1150 88 109 322 335 437 422 393 297 864 480 1370 532 159 16 444
12 600 -8z"/>
<path d="M3520 6117 c-186 -41 -287 -241 -206 -409 112 -235 435 -234 545 2
39 83 36 157 -9 246 -65 128 -193 190 -330 161z m127 -122 c50 -21 72 -42 94
-90 23 -49 24 -116 3 -160 -35 -74 -154 -116 -225 -80 -73 37 -109 88 -109
156 0 129 125 221 237 174z"/>
<path d="M1925 5546 c-59 -27 -119 -90 -148 -155 -16 -35 -22 -66 -22 -126 0
-69 4 -86 27 -125 82 -139 227 -195 376 -146 132 44 216 194 187 337 -29 148
-141 238 -295 239 -58 0 -86 -6 -125 -24z m211 -117 c78 -47 115 -158 76 -229
-51 -93 -160 -127 -245 -77 -65 38 -97 90 -97 159 0 108 90 185 200 170 19 -2
49 -13 66 -23z"/>
<path d="M5015 5552 c-96 -33 -156 -94 -195 -198 -25 -69 -25 -95 2 -175 31
-93 108 -168 198 -193 258 -72 472 180 356 419 -67 136 -217 197 -361 147z
m172 -119 c40 -18 89 -88 99 -138 17 -92 -85 -195 -193 -195 -110 0 -198 126
-155 223 48 105 158 154 249 110z"/>
<path d="M3395 5361 c-116 -12 -234 -38 -365 -81 -608 -199 -1051 -699 -1187
-1339 -25 -114 -27 -146 -27 -336 0 -189 3 -223 27 -336 102 -481 359 -872
746 -1131 283 -189 581 -284 931 -295 206 -7 332 5 503 48 654 165 1149 680
1297 1349 59 271 50 574 -25 835 -86 299 -237 553 -460 778 -258 259 -585 427
-960 492 -106 19 -366 27 -480 16z m445 -137 c431 -64 807 -289 1062 -635 205
-279 296 -522 329 -878 27 -291 -53 -639 -211 -918 -105 -188 -281 -387 -454
-516 -176 -130 -425 -238 -666 -288 -101 -21 -141 -24 -330 -24 -199 1 -224 3
-335 29 -374 87 -709 291 -926 561 -195 242 -311 505 -361 815 -18 114 -15
387 5 495 70 365 214 642 467 895 138 138 264 230 425 310 312 155 646 207
995 154z"/>
<path d="M1262 3905 c-67 -19 -84 -28 -134 -73 -127 -115 -129 -305 -4 -428
146 -142 383 -101 473 83 56 115 29 258 -64 344 -80 74 -176 100 -271 74z
m143 -129 c41 -17 90 -82 99 -131 22 -113 -96 -233 -207 -210 -108 22 -180
154 -133 243 19 35 74 88 106 101 37 14 96 13 135 -3z"/>
<path d="M5777 3909 c-142 -33 -232 -150 -232 -299 0 -60 5 -85 25 -124 69
-134 231 -199 376 -149 71 24 157 112 178 183 20 69 20 124 -1 186 -36 107
-103 171 -208 199 -65 17 -82 17 -138 4z m164 -142 c41 -27 79 -98 79 -146 0
-82 -84 -174 -172 -187 -44 -7 -112 29 -152 79 -27 33 -31 47 -31 97 0 50 4
64 31 97 63 79 175 107 245 60z"/>
<path d="M1949 2234 c-56 -17 -130 -80 -166 -142 -22 -36 -28 -61 -31 -128 -4
-72 -1 -89 20 -136 89 -194 335 -243 485 -96 61 59 87 126 88 218 0 67 -4 82
-34 139 -72 132 -217 190 -362 145z m169 -118 c118 -62 140 -217 42 -300 -118
-99 -290 -27 -290 121 0 111 76 193 178 193 24 0 55 -6 70 -14z"/>
<path d="M5037 2236 c-100 -28 -181 -113 -213 -224 -49 -167 91 -346 279 -360
64 -4 73 -2 143 33 88 45 124 83 153 160 70 187 -55 383 -254 400 -36 3 -80
-1 -108 -9z m160 -123 c47 -22 90 -84 99 -139 18 -122 -100 -235 -213 -205
-113 31 -175 160 -124 259 47 92 148 128 238 85z"/>
<path d="M3521 1660 c-136 -28 -235 -152 -235 -295 0 -170 129 -299 299 -299
164 -1 294 121 303 284 11 199 -168 351 -367 310z m138 -128 c105 -53 134
-193 58 -279 -88 -100 -227 -81 -289 41 -72 141 92 310 231 238z"/>
</g>
</svg>
